<svg xmlns="http://www.w3.org/2000/svg" id="katman_1" viewBox="0 0 1519 630"><defs><style>.cls-1{fill:#fff;}.cls-2{fill:#ee7131;}</style></defs><rect class="cls-2" x="-3.74" y="2.13" width="1522.21" height="633.19"></rect><path class="cls-2" d="m117.28,120.03c3.22,0,3.22-5,0-5s-3.22,5,0,5h0Z"></path><path class="cls-2" d="m495.97,291.1c2.43-16.12,9.05-31.53,19.05-44.41,10.3-13.27,24.08-23.71,39.77-29.77,16.28-6.28,34.32-8.24,51.52-5.1s32.45,11.03,47.8,18.54,31.1,14.87,48.25,16.87c2.1.25,4.21.4,6.33.47,3.22.11,3.21-4.89,0-5-17.18-.58-33.18-7.52-48.43-14.89s-31.41-16.06-48.58-19.99c-17.64-4.03-36.38-3.05-53.55,2.6-16.66,5.48-31.67,15.33-43.21,28.56s-19.08,28.2-22.66,44.71c-.44,2.01-.8,4.04-1.11,6.07-.2,1.33.33,2.69,1.75,3.08,1.18.32,2.87-.4,3.08-1.75h0Z"></path><path class="cls-1" d="m533.28,172.48c37.82-9.67,76.34-19.48,115.67-18.76,17.2.32,34.76,2.45,50.93,8.58,2.06.78,2.88,1.12,4.67,1.94s3.48,1.66,5.17,2.59,3.33,1.89,4.93,2.93c.73.47,1.44.96,2.15,1.45.35.25.7.5,1.05.76.14.1,1.38,1.05.84.63,6.3,4.98,10.71,10.19,14.2,17.19,1.67,3.34,2.95,7.05,3.95,10.99s1.63,7.79,2,11.62c.84,8.68.66,17.41.36,26.11-.68,20.09-1.43,40.17-2.15,60.26-.32,8.9-.88,17.84-.66,26.75.19,7.84,1,15.93,3.73,23.33,2.83,7.64,7.45,14.17,14.15,18.88s14.49,6.57,22.33,7.12c16.38,1.15,33.13-3.95,48.36-9.43,17.06-6.14,33.43-14.22,48.59-24.17,3.68-2.41,7.28-4.94,10.81-7.56,2.17-1.61,3.26-4.33,1.79-6.84-1.25-2.13-4.66-3.41-6.84-1.79-14.26,10.59-29.92,19.62-46.18,26.5-7.97,3.37-16.43,6.33-24.85,8.75-3.98,1.14-7.98,2.2-12.04,3.02s-6.71,1.23-10.76,1.5c-3.66.25-7.29.16-10.95-.16-1.65-.15.93.17-.7-.08-.5-.08-1-.16-1.5-.25-.83-.15-1.65-.33-2.47-.53-1.77-.44-3.53-.98-5.22-1.67.89.37-.6-.28-.62-.29-.3-.14-.6-.29-.89-.44-.88-.45-1.75-.94-2.59-1.47-1.8-1.14-2.2-1.45-3.76-2.95-.62-.59-1.21-1.2-1.78-1.84-.34-.38-.66-.76-.98-1.16.44.55-.08-.1-.14-.18-1.16-1.63-2.2-3.33-3.08-5.12-.15-.3-.28-.6-.43-.9-.7-1.44.3.85-.28-.65-.3-.78-.6-1.57-.86-2.37-.62-1.86-1.11-3.76-1.51-5.67-.77-3.69-1.03-6.28-1.25-10.38-.45-8.58.08-17.19.39-25.76.72-20.19,1.44-40.39,2.16-60.58.61-17.18,1.39-35.35-4.94-51.68-5.99-15.45-17.86-26.97-32.63-34.18-15.53-7.59-32.76-10.81-49.88-12.18-39.58-3.17-79.07,5.45-117.24,15.01-4.59,1.15-9.18,2.32-13.77,3.49-2.62.67-4.2,3.58-3.49,6.15s3.53,4.16,6.15,3.49h0Z"></path><path class="cls-1" d="m858.98,328.87c1.91,0,3.82.08,5.72.22.95.07,1.9.16,2.85.26.51.06,1.02.12,1.53.18-.91-.12.05.01.42.07,3.78.58,7.5,1.43,11.16,2.53,2.5.75,5.56-.9,6.15-3.49s-.81-5.34-3.49-6.15c-7.87-2.37-16.12-3.58-24.34-3.61-2.62-.01-5.12,2.31-5,5s2.2,4.99,5,5h0Z"></path><path class="cls-1" d="m878.31,328.94c-.8,9.25-1.22,18.53-1.25,27.82,0,2.62,2.31,5.12,5,5s4.99-2.2,5-5c.03-9.29.45-18.57,1.25-27.82.23-2.61-2.46-5.11-5-5-2.9.13-4.76,2.2-5,5h0Z"></path><path class="cls-1" d="m-19.33,91.88c22.53,1.88,46.23,3.85,66.36,15.07,16.17,9.01,30.16,26.27,30.13,45.51-.02,18.38-14.47,32.25-24.8,46.09-5.24,7.02-10.04,14.68-12.18,23.27-2.62,10.52-.76,21.19,4.13,30.76,10.36,20.28,31.27,30.98,44.81,48.59s14.74,39.99,9.36,60.27c-5.93,22.31-19.66,41.69-34.01,59.37-14.15,17.44-29.49,33.9-45.87,49.27-32.45,30.46-68.97,56.49-108.34,77.24-4.91,2.59-9.86,5.09-14.85,7.51-2.43,1.18-3.08,4.64-1.79,6.84,1.45,2.48,4.4,2.98,6.84,1.79,41.5-20.16,80.15-46.09,114.68-76.71,17.1-15.16,33.17-31.49,48.03-48.84,15.49-18.08,30.63-37.21,39.91-59.31,8.78-20.9,11.81-45.53,3.24-67.03-4.32-10.83-11.31-19.82-19.68-27.83-8.3-7.95-17.53-14.96-25.09-23.66-6.65-7.64-12.43-17.16-12.63-27.57-.16-8.58,3.45-16.28,8.25-23.51,10.14-15.27,25.15-28.37,28.99-47.05,4.32-21.05-6.59-42.25-22.52-55.59-18.38-15.39-42.54-20.31-65.76-22.88-5.73-.63-11.47-1.12-17.22-1.6-2.69-.23-5,2.46-5,5,0,2.89,2.3,4.77,5,5h0Z"></path><path class="cls-1" d="m1499.92,708.68c-22.82-2.54-46.28-8.04-68.13-16.38s-41.9-19.49-59.27-33.8-32.82-32.68-43.17-53.6-15.85-44.9-16.62-68.42c-.79-24.38,3.1-48.37,11.28-71.39,7.89-22.19,20.22-43.01,35.43-60.88,15.26-17.93,33.17-33.18,52.95-45.74,20.05-12.73,41.48-22.55,64.05-29.62,25.3-7.92,51.64-12.22,78.13-13.09,28.45-.93,56.96,2.07,84.58,9.02,6.8,1.71,13.53,3.66,20.19,5.83,2.57.83,5.46-.97,6.15-3.49.74-2.71-.91-5.31-3.49-6.15-28.01-9.11-57.34-14.2-86.78-15.19-28.58-.97-57.44,1.95-85.2,8.87-23.82,5.94-46.95,14.93-68.46,26.77-21.44,11.8-41.39,26.58-58.54,44.06-17.21,17.54-31.76,37.9-41.92,60.3-10.5,23.16-16.71,48.1-18.16,73.5s1.89,50.34,10.53,73.79,22.13,44.02,39.65,61.36c17.07,16.89,37.44,30.34,59.2,40.41,22.08,10.22,45.54,17.27,69.52,21.31,6,1.01,12.03,1.84,18.07,2.51,2.69.3,5-2.51,5-5,0-2.95-2.3-4.7-5-5h0Z"></path></svg>