<svg xmlns="http://www.w3.org/2000/svg" id="katman_2" data-name="katman 2" viewBox="0 0 90 55.4"><defs><style>      .cls-1 {        stroke-width: 0px;      }    </style></defs><g id="katman_1" data-name="katman 1"><path class="cls-1" d="m88.9,9.2l-24.1-7.2c-.1,0-.3-.1-.4-.1-.2,0-.3,0-.5.1l-13.6,4.8L41.1.3c-.3-.2-.6-.3-.9-.3h-.2L6.9,5.6c-.6.1-1.1.6-1.2,1.1-.1.6.1,1.2.6,1.6l7.6,5.4L.9,18.8c-.5.3-.9.9-.9,1.5s.5,1.2,1.1,1.4l14.4,4.3v20.7c0,.7.4,1.2,1.1,1.4l24.1,7.2c.1,0,.3.1.4.1h.2l33.1-5.6c.7-.1,1.3-.7,1.3-1.5v-21.6l8.6-1.4c.6-.1,1-.5,1.2-1.1s0-1.2-.5-1.5l-7.8-6.4,11.8-4.3c.6-.2,1-.8,1-1.5,0-.6-.4-1.1-1.1-1.3Zm-14.7,5.9l-22.5-6.7,12.7-4.5,22.5,6.8-12.7,4.4Zm-2.2.4l-21.5,3.6v-10l21.5,6.4Zm-22.4,3.8l-8.5,1.4-22-6.5,30.4-5.1v10s.1.1.1.2Zm-32.5-5.8l-8.7-6.2,31.7-5.3,8.7,6.2-31.7,5.3Zm-.1,1.1l22.6,6.7-13.9,5.6L3,20.2l14-5.6Zm.4,10.9l8.1,2.4h.3l14.7-5.9v31.2l-23.1-6.9v-20.8Zm24.2,27.8v-31l9,7.4c.1.1.2.1.3.1h.1l22.7-3.8v21.9l-32.1,5.4Zm9.4-24.5l-8.8-7.3,31.8-5.4,8.8,7.3-31.8,5.4Z"></path></g></svg>