<svg xmlns="http://www.w3.org/2000/svg" xmlns:xlink="http://www.w3.org/1999/xlink" id="katman_1" x="0px" y="0px" viewBox="0 0 128 131.4" style="enable-background:new 0 0 128 131.4;" xml:space="preserve"><path d="M79.4,87.3c22.3-4.2,37-25.6,32.8-47.9c-4.2-22.3-25.6-37-47.9-32.8s-37,25.6-32.8,47.9c1.6,8.4,5.7,16,11.8,21.9L39.4,82  c-1.7-0.6-3.6,0-4.7,1.5L20.1,105c-3.1,4.6-1.9,10.8,2.6,13.9c4.6,3.1,10.8,1.9,13.9-2.6l14.7-21.5c1-1.5,0.9-3.5-0.3-4.9l3.8-5.6  C62.5,87.8,71.1,88.9,79.4,87.3z M64.9,10.6c20.1-3.8,39.4,9.4,43.2,29.5c3.8,20.1-9.4,39.4-29.5,43.2C58.6,87.2,39.2,74,35.4,53.9  c0,0,0,0,0,0c-3.8-20,9.3-39.4,29.3-43.2C64.8,10.7,64.9,10.7,64.9,10.6z M25,115.6c-2.7-1.9-3.4-5.6-1.6-8.3l14.7-21.5l9.9,6.8  L33.4,114C31.5,116.7,27.8,117.4,25,115.6z M47.8,87.5l-5-3.4l3.5-5.1c0.8,0.6,1.6,1.2,2.4,1.8c0.8,0.6,1.7,1.1,2.5,1.6L47.8,87.5z"></path><path d="M60.7,77c0.9,0.6,2.2,0.4,2.8-0.5l0.7-1.1c4.2-6.2,9.5-10.2,15.7-12c4-1.1,7.5-3.6,9.8-7c2.8-4.1,3.7-9.2,2.6-14  C91,36.7,87.5,31.9,82.6,29c-8.6-5.2-19.5-3.5-25.2,3.8c-2.9,3.7-4.2,8.4-3.6,13.1c0.7,6-1.1,12.1-5.5,18.6l-0.7,1.1  c-0.6,0.9-0.4,2.2,0.5,2.8L60.7,77z M58.2,70.4l8.5-12.4l5.6-0.6c0.6-0.1,1.1-0.4,1.4-0.9l4.9-7.2c0.6-0.9,0.4-2.2-0.5-2.8  c-0.2-0.1-0.3-0.2-0.5-0.3l-1.8-0.6L75.4,44c-0.2-1-1.2-1.6-2.2-1.5l-1.7,0.2l-1.2-1.5c-0.7-0.9-2-1-2.8-0.3s-1,2-0.3,2.8l1.9,2.3  c0.4,0.5,1.1,0.8,1.8,0.7l1.1-0.1l0.3,1.1c0.2,0.7,0.7,1.2,1.3,1.4l0.3,0.1L71,53.5l-5.6,0.6c-0.6,0.1-1.1,0.4-1.4,0.9l-9,13.2  l-3-2.1c4.7-7.1,6.6-13.8,5.8-20.7c-0.5-3.6,0.6-7.3,2.8-10.2c4.5-5.7,13.3-6.9,20-2.9c4,2.4,6.8,6.2,7.9,10.7  c0.9,3.8,0.2,7.7-2,10.9c-1.8,2.7-4.5,4.6-7.6,5.5c-6.9,2-12.8,6.4-17.5,13L58.2,70.4z"></path><path d="M90.5,62.2c-0.6,0.9-0.4,2.2,0.5,2.8l1.7,1.1c0.9,0.6,2.2,0.4,2.8-0.5c0.6-0.9,0.4-2.2-0.5-2.8c0,0,0,0,0,0l-1.7-1.1  C92.4,61.1,91.1,61.3,90.5,62.2z"></path><path d="M50.3,32.4l-1.7-1.1c-0.9-0.6-2.2-0.4-2.8,0.5c-0.6,0.9-0.4,2.2,0.5,2.8c0,0,0,0,0,0l1.7,1.1c0.9,0.6,2.2,0.4,2.8-0.5  C51.5,34.2,51.2,33,50.3,32.4C50.3,32.4,50.3,32.4,50.3,32.4z"></path><path d="M85.9,26.4c0.9,0.6,2.2,0.4,2.8-0.5l1.1-1.7c0.6-0.9,0.4-2.2-0.5-2.8c-0.9-0.6-2.2-0.4-2.8,0.5l-1.1,1.7  C84.8,24.5,85,25.7,85.9,26.4z"></path><path d="M97.1,47.3c0.4,0.3,1,0.4,1.5,0.3l2.8-0.5c1.1-0.2,1.8-1.3,1.6-2.3c-0.2-1.1-1.3-1.8-2.3-1.6l-2.8,0.5  c-1.1,0.2-1.8,1.2-1.6,2.3C96.3,46.5,96.6,47,97.1,47.3z"></path><path d="M65.4,21.6l-0.5-2.8c-0.2-1.1-1.3-1.8-2.3-1.6c-1.1,0.2-1.8,1.2-1.6,2.3l0.5,2.8c0.2,1.1,1.3,1.8,2.3,1.6  C64.9,23.7,65.6,22.7,65.4,21.6C65.4,21.6,65.4,21.6,65.4,21.6z"></path></svg>