<svg xmlns="http://www.w3.org/2000/svg" xmlns:xlink="http://www.w3.org/1999/xlink" id="katman_1" x="0px" y="0px" viewBox="0 0 75.7 66.8" style="enable-background:new 0 0 75.7 66.8;" xml:space="preserve"><g>	<path d="M42.7,41.1l-12.1-7v-14l-13.3-7.6L4.1,20.3v29.3l25.3,14.6l13.3-7.7V41.1L42.7,41.1z M28.2,34.2l-9.6,5.6V28.6l9.6-5.6   V34.2z M29.4,47.4l-9.6-5.6l9.6-5.6l9.6,5.6L29.4,47.4z M17.4,15.4l9.5,5.6l-9.5,5.5L7.7,21L17.4,15.4z M6.5,48.1V23.1l9.6,5.6v14   l12.1,6.9v11.1L6.5,48.1z M30.6,60.6V49.5l9.6-5.6v11.1L30.6,60.6z"></path>	<path d="M72.4,10.5L59.2,2.8L33.8,17.5v15.3l25.3,14.6l13.3-7.6L72.4,10.5L72.4,10.5z M37.5,18.2L59.1,5.7l9.7,5.5L47.1,23.7   L37.5,18.2z M36.2,20.3l9.6,5.6V37l-9.6-5.6V20.3z M49.5,39.1L49.5,39.1L49.5,39.1l8.4-4.9v9.7L49.5,39.1z M70,38.4l-9.6,5.6V30   l-12.1,7V25.8L70,13.3V38.4z"></path></g></svg>