<svg xmlns="http://www.w3.org/2000/svg" id="katman_1" viewBox="0 0 1500 600"><defs><style>.cls-1{fill:#fff;}.cls-2{fill:#f9b333;}</style></defs><rect class="cls-2" x="-.49" y="-1.64" width="1500.77" height="603.57"></rect><path class="cls-1" d="m146.06,74.22c2.54-4.6,8.36-5.06,12.95-3.98,2.69.64,5.27,1.67,7.86,2.64,2.73,1.02,5.46,2.03,8.19,3.05,11.08,4.13,22.15,8.25,33.23,12.38,11.08,4.13,22.15,8.25,33.23,12.38,4.24,1.58,10.16,2.89,12.71,7.04s.51,9.84-1.18,14.09c-2.2,5.53-4.43,11.05-6.65,16.57s-4.09,10.59-6.35,15.78c-.89,2.04-1.96,4.18-3.74,5.6-2.13,1.7-4.9,1.84-7.49,1.36s-5-1.44-7.44-2.31c-2.82-1.01-5.64-2.02-8.46-3.02-22.24-7.95-44.48-15.91-66.72-23.86-4.8-1.72-10.29-3.33-13.47-7.63-1.63-2.2-2.23-4.74-1.8-7.44s1.39-5.37,2.19-7.99c3.33-10.86,7.22-21.54,11.68-31.98,1.09-2.56,2.22-5.1,3.37-7.63.49-1.08-1.1-2.02-1.6-.94-4.98,10.91-9.38,22.08-13.14,33.47-.95,2.87-1.85,5.74-2.72,8.64-.82,2.74-1.85,5.6-1.79,8.5.11,5.05,3.86,8.97,8.07,11.25,2.32,1.26,4.82,2.14,7.3,3.02,2.98,1.06,5.95,2.13,8.93,3.19,5.95,2.13,11.9,4.26,17.85,6.39,11.82,4.23,23.65,8.46,35.47,12.69,5.88,2.1,11.73,4.3,17.64,6.3,4.62,1.56,10.09,2.55,13.96-1.19,1.67-1.61,2.74-3.73,3.64-5.84,1.14-2.66,2.17-5.37,3.25-8.05,2.31-5.75,4.62-11.51,6.93-17.26,2.02-5.03,4.75-10.26,5.27-15.73.47-4.99-1.98-8.95-6.33-11.25-2.23-1.18-4.65-1.98-7.01-2.86-2.96-1.1-5.93-2.21-8.89-3.31-5.93-2.21-11.86-4.42-17.78-6.63-11.86-4.42-23.71-8.83-35.57-13.25-5.81-2.17-11.61-4.38-17.45-6.49-4.79-1.73-10.08-3.09-14.96-.92-2.02.9-3.71,2.34-4.78,4.28-.58,1.05,1.02,1.98,1.6.94h0Z"></path><path class="cls-1" d="m182.52,468.43c-.75-4.53,2.99-8,6.72-9.75,2.19-1.02,4.52-1.71,6.82-2.45,2.42-.78,4.84-1.57,7.27-2.35,9.83-3.18,19.65-6.35,29.49-9.53,9.83-3.18,19.65-6.35,29.49-9.53,3.76-1.22,8.53-3.53,12.53-2.07s5.68,6.47,6.83,10.3c1.49,4.98,2.95,9.97,4.43,14.96s2.94,9.48,4.2,14.26c.5,1.88.92,3.93.47,5.87-.54,2.32-2.36,3.92-4.4,4.99s-4.21,1.72-6.35,2.45c-2.48.84-4.96,1.67-7.44,2.52-19.55,6.61-39.11,13.21-58.66,19.82-4.22,1.42-8.86,3.3-13.37,2.07-2.31-.62-4.1-2.04-5.27-4.12s-1.96-4.43-2.83-6.66c-3.61-9.25-6.73-18.68-9.33-28.25-.64-2.35-1.24-4.7-1.83-7.06-.25-1.01-1.85-.79-1.61.22,2.5,10.18,5.54,20.22,9.14,30.06.9,2.48,1.84,4.94,2.82,7.4.92,2.32,1.77,4.84,3.38,6.8,2.81,3.4,7.51,4.05,11.63,3.34,2.27-.39,4.46-1.15,6.64-1.89,2.62-.89,5.23-1.77,7.85-2.66,5.23-1.77,10.47-3.53,15.7-5.3,10.39-3.51,20.8-7.02,31.19-10.53,5.17-1.75,10.37-3.41,15.51-5.25,4.01-1.44,8.3-3.72,8.92-8.38.27-2.01-.14-4.04-.67-5.98-.66-2.44-1.42-4.86-2.14-7.28-1.53-5.19-3.07-10.39-4.61-15.59-1.34-4.54-2.31-9.61-4.92-13.64-2.38-3.67-6.21-5.06-10.44-4.28-2.17.4-4.26,1.16-6.35,1.84-2.63.85-5.26,1.7-7.89,2.55-5.26,1.7-10.52,3.4-15.78,5.1-10.52,3.4-21.04,6.8-31.56,10.2-5.16,1.66-10.33,3.29-15.48,5.01-4.22,1.41-8.58,3.35-10.75,7.48-.9,1.71-1.27,3.62-.96,5.52.17,1.03,1.77.8,1.61-.22h0Z"></path><path class="cls-1" d="m1215.6,124.1c3.22-4.82,9.67-4.78,14.62-3.17,2.9.96,5.64,2.33,8.4,3.64,2.91,1.38,5.82,2.74,8.72,4.12,11.8,5.58,23.6,11.15,35.4,16.73,11.8,5.58,23.6,11.15,35.4,16.73,4.52,2.14,10.91,4.13,13.32,8.93,2.42,4.8-.36,10.87-2.62,15.39-2.94,5.88-5.91,11.74-8.87,17.61s-5.49,11.27-8.46,16.77c-1.17,2.16-2.55,4.42-4.64,5.81-2.5,1.67-5.56,1.57-8.37.8-2.8-.77-5.37-2.05-7.97-3.24-3.01-1.38-6.02-2.75-9.02-4.11-23.72-10.83-47.45-21.67-71.17-32.5-5.12-2.34-11.01-4.63-14.11-9.66-1.59-2.57-2.01-5.42-1.28-8.35.73-2.93,2.03-5.78,3.16-8.59,4.68-11.64,9.96-23.02,15.84-34.09,1.44-2.71,2.92-5.4,4.42-8.08.64-1.14-1.02-2.33-1.67-1.18-6.5,11.54-12.39,23.41-17.59,35.59-1.31,3.07-2.57,6.14-3.8,9.25-1.16,2.94-2.56,5.99-2.76,9.18-.35,5.57,3.41,10.23,7.83,13.13,2.43,1.6,5.1,2.81,7.75,4.01,3.18,1.45,6.35,2.9,9.53,4.35,6.35,2.9,12.69,5.8,19.04,8.7,12.61,5.76,25.23,11.52,37.84,17.28,6.27,2.86,12.5,5.83,18.82,8.58,4.94,2.15,10.86,3.75,15.47,0,1.99-1.61,3.36-3.85,4.55-6.08,1.5-2.82,2.89-5.7,4.33-8.55,3.08-6.11,6.16-12.23,9.24-18.34,2.69-5.34,6.19-10.84,7.27-16.81.98-5.45-1.34-10.03-5.91-12.97-2.34-1.51-4.93-2.61-7.44-3.8-3.15-1.49-6.32-2.99-9.47-4.47-6.32-2.99-12.63-5.97-18.94-8.96-12.63-5.97-25.26-11.93-37.89-17.91-6.19-2.93-12.36-5.91-18.59-8.77-5.11-2.35-10.8-4.34-16.37-2.41-2.31.8-4.3,2.23-5.66,4.26-.74,1.1.94,2.27,1.67,1.18h0Z"></path><path class="cls-1" d="m120.31,140.47c-3.19,7.79-6.38,15.58-9.58,23.36l-4.79,11.68c-1.43,3.5-3.27,7.08-3.72,10.88-.37,3.13.45,6.52,3.02,8.55,1.24.98,2.72,1.55,4.19,2.1,2.01.75,4.02,1.49,6.03,2.23,7.95,2.94,15.89,5.88,23.84,8.81,1.98.73,3.95,1.53,5.96,2.19,1.59.52,3.31.79,4.91.13,2.86-1.2,3.78-4.66,4.74-7.31,2.88-7.97,5.77-15.94,8.65-23.92,1.47-4.06,2.94-8.13,4.41-12.19.71-1.95,1.42-3.91,2.12-5.86.64-1.78,1.28-3.66,1.11-5.58-.28-3.25-2.88-5.21-5.57-6.61-3.42-1.78-6.96-3.35-10.52-4.83-7.34-3.06-14.9-5.66-22.51-7.97-3.15-.96-6.74-1.76-9.82-.13-2.47,1.31-3.84,3.87-4.64,6.44-.44,1.43-.72,2.91-.96,4.39-.19,1.17,1.59,1.67,1.79.49.44-2.66.95-5.58,2.57-7.81,2.05-2.82,5.39-2.92,8.52-2.17,3.4.82,6.74,2.03,10.05,3.14s6.8,2.35,10.16,3.65,6.81,2.75,10.14,4.3c1.61.75,3.23,1.5,4.78,2.35,1.33.73,2.74,1.59,3.54,2.93.96,1.6.67,3.45.17,5.15-.55,1.86-1.29,3.68-1.95,5.5-1.3,3.6-2.6,7.19-3.9,10.79-2.6,7.19-5.2,14.38-7.81,21.57-.65,1.8-1.3,3.6-1.95,5.39-.58,1.62-1.07,3.34-1.99,4.81s-2.25,2.22-4.03,1.94-3.64-1.16-5.38-1.81c-7.17-2.65-14.34-5.3-21.5-7.95-3.55-1.31-7.12-2.61-10.66-3.94-1.54-.58-3.14-1.24-4.21-2.54s-1.51-3.02-1.53-4.68c-.05-3.91,2.02-7.74,3.47-11.27l4.88-11.91c3.25-7.94,6.51-15.88,9.76-23.82.45-1.1-1.34-1.58-1.79-.49h0v.02Z"></path><path class="cls-1" d="m180.04,164.59c-2.98,8.02-5.96,16.04-8.94,24.06l-4.42,11.91c-1.26,3.4-2.79,6.98-2.49,10.69.27,3.29,1.87,6.05,4.83,7.6,3.44,1.79,7.35,2.89,10.98,4.24,3.98,1.48,7.95,2.96,11.93,4.44s7.93,3.22,12,4.37c3.26.92,6.57.75,9.26-1.48,2.45-2.04,3.8-5.07,4.5-8.12.86-3.74,1.02-7.59,2.13-11.28,1.01-3.39,2.5-6.6,4.05-9.77,3-6.14,6.39-12.32,7.3-19.2.45-3.41-.49-6.23-3.55-8.03-1.49-.87-3.15-1.48-4.74-2.15-1.9-.8-3.8-1.59-5.7-2.37-7.7-3.15-15.46-6.15-23.27-8.99-3.26-1.18-6.67-2.72-10.1-1.26-2.97,1.27-4.94,4.02-5.86,7.04-.53,1.74-.72,3.57-.77,5.38-.04,1.19,1.82,1.19,1.85,0,.11-3.46.85-7.16,3.59-9.53,1.13-.97,2.55-1.63,4.05-1.68,1.85-.07,3.66.73,5.37,1.34,6.99,2.52,13.93,5.16,20.82,7.93,3.52,1.42,7.03,2.86,10.52,4.35,1.47.63,3.07,1.21,4.33,2.24,1.45,1.19,1.83,2.84,1.7,4.65-.43,6.33-3.68,12.29-6.43,17.86s-5.32,11.41-6.24,17.8c-.49,3.38-.85,6.94-2.68,9.92s-4.61,4.52-8.07,3.93-7.13-2.34-10.54-3.61c-3.59-1.34-7.17-2.67-10.76-4.01s-7.17-2.67-10.76-4.01c-3.32-1.24-6.69-2.34-7.66-6.16s.71-7.67,2.01-11.18c1.5-4.05,3.01-8.1,4.51-12.15,3.01-8.1,6.02-16.2,9.02-24.29.42-1.12-1.37-1.6-1.79-.49h.02Z"></path><path class="cls-1" d="m92.49,212.36c-1.98,5.98-3.96,11.97-5.93,17.95s-4.13,11.96-5.91,18.01c-1.42,4.84-2.12,10.41.69,14.92s8.9,5.86,13.63,7.61c23.71,8.76,47.42,17.53,71.14,26.29,2.96,1.1,5.93,2.19,8.89,3.29,2.56.95,5.27,2.05,8.06,1.69,4.58-.59,6.8-4.95,8.13-8.88,1.95-5.74,3.61-11.59,5.4-17.38s3.76-12.13,5.64-18.19c.83-2.67,2.1-5.56,2-8.4-.08-2.36-1.34-4.18-3.2-5.53-2.15-1.57-4.73-2.65-7.11-3.81-2.77-1.35-5.57-2.63-8.38-3.88-10.93-4.81-22.14-8.92-33.35-13.01-11.81-4.31-23.62-8.62-35.42-12.92-4.94-1.8-10.26-4.17-15.64-3.48-4.71.6-7.98,3.88-9.86,8.07-.93,2.06-1.58,4.23-2.19,6.4-.32,1.15,1.47,1.64,1.79.49,1.14-4.06,2.46-8.82,6.07-11.42,4.3-3.1,9.93-1.6,14.51-.02,11,3.79,21.89,7.97,32.82,11.96s21.63,7.8,32.28,12.13c5.27,2.14,10.48,4.41,15.6,6.87,2.37,1.14,4.82,2.23,7.06,3.61,2.37,1.46,3.57,3.43,3.05,6.28s-1.61,5.57-2.45,8.29c-.84,2.72-1.76,5.67-2.64,8.51-1.76,5.67-3.51,11.34-5.27,17.01-.82,2.64-1.58,5.31-2.47,7.93-.66,1.94-1.47,3.95-2.85,5.49-1.81,2.02-4.27,2.42-6.84,1.8-2.72-.65-5.35-1.82-7.97-2.78-22.31-8.25-44.62-16.49-66.93-24.74-5.46-2.02-11.02-3.88-16.4-6.09-2.37-.97-4.5-2.32-5.77-4.62-1.18-2.14-1.52-4.64-1.38-7.05.17-2.89,1.05-5.69,1.94-8.43s1.81-5.48,2.71-8.22c1.85-5.59,3.7-11.18,5.54-16.77l2.81-8.5c.38-1.14-1.41-1.62-1.79-.49h0Z"></path><path class="cls-1" d="m1276.94,397.41c-.13-3.82,3.33-6.28,6.6-7.32,1.92-.6,3.92-.92,5.9-1.29,2.09-.38,4.17-.77,6.26-1.15,8.46-1.56,16.92-3.12,25.38-4.67,8.46-1.56,16.92-3.12,25.38-4.67,3.24-.6,7.43-1.99,10.57-.35s3.99,5.96,4.52,9.24c.69,4.28,1.36,8.56,2.03,12.83.67,4.28,1.4,8.14,1.92,12.23.21,1.61.34,3.34-.25,4.89-.7,1.86-2.37,2.98-4.17,3.65s-3.66.97-5.51,1.33c-2.14.42-4.28.84-6.41,1.27-16.86,3.34-33.73,6.67-50.59,10.01-3.64.72-7.67,1.76-11.26.26-1.84-.77-3.16-2.13-3.9-3.98s-1.14-3.87-1.62-5.81c-1.97-8.03-3.53-16.15-4.64-24.34-.27-2.01-.52-4.01-.74-6.02-.1-.86-1.44-.85-1.35.01.96,8.67,2.38,17.3,4.29,25.81.48,2.15.99,4.28,1.53,6.41.51,2.02.94,4.19,2.06,5.98,1.95,3.11,5.76,4.16,9.24,4.01,1.92-.08,3.81-.46,5.69-.84,2.26-.45,4.51-.89,6.77-1.34,4.51-.89,9.02-1.78,13.54-2.67,8.96-1.77,17.93-3.54,26.9-5.32,4.46-.88,8.93-1.69,13.37-2.65,3.47-.75,7.26-2.17,8.28-5.96.44-1.63.32-3.35.09-5.01-.28-2.09-.65-4.16-.98-6.24-.7-4.45-1.41-8.92-2.12-13.37-.62-3.9-.86-8.18-2.58-11.79-1.57-3.29-4.58-4.85-8.15-4.66-1.83.1-3.64.5-5.45.83-2.26.42-4.53.83-6.79,1.25-4.53.83-9.06,1.67-13.58,2.5-9.06,1.67-18.11,3.34-27.17,5-4.44.81-8.89,1.6-13.32,2.46-3.64.71-7.45,1.83-9.69,5.01-.93,1.32-1.44,2.85-1.39,4.46.03.87,1.38.86,1.35-.01h0Z"></path><path class="cls-1" d="m1285.59,448.41c.92,6.06,1.83,12.11,2.74,18.17l1.37,9.08c.41,2.72.6,5.64,1.74,8.19.94,2.09,2.72,3.91,5.08,4.21,1.14.15,2.28-.05,3.4-.25,1.54-.28,3.07-.57,4.6-.86,6.06-1.13,12.12-2.26,18.18-3.4,1.51-.28,3.04-.52,4.54-.86,1.19-.27,2.36-.74,3.12-1.75,1.34-1.82.62-4.32.23-6.34-1.18-6.05-2.35-12.11-3.53-18.17-.6-3.09-1.2-6.18-1.8-9.26-.28-1.48-.57-2.97-.86-4.45-.26-1.35-.57-2.76-1.39-3.9-1.39-1.93-3.74-2.18-5.95-2.05-2.8.16-5.6.51-8.38.91-5.73.83-11.42,2.03-17.04,3.43-2.33.58-4.87,1.42-6.18,3.59-1.05,1.74-.95,3.85-.49,5.76.26,1.06.64,2.09,1.04,3.1.32.8,1.62.45,1.3-.36-.72-1.83-1.49-3.84-1.31-5.84.23-2.53,2.28-3.84,4.51-4.54,2.43-.76,4.97-1.25,7.45-1.79s5.13-1.07,7.71-1.51,5.28-.82,7.94-1.1c1.29-.13,2.58-.27,3.86-.32,1.1-.04,2.31-.03,3.31.51,1.2.64,1.71,1.91,2.03,3.15.35,1.37.57,2.78.84,4.16.53,2.73,1.06,5.46,1.59,8.2,1.06,5.46,2.12,10.92,3.17,16.39.27,1.37.53,2.73.79,4.1.24,1.23.58,2.49.55,3.75s-.58,2.23-1.79,2.72-2.71.63-4.04.88c-5.47,1.02-10.94,2.04-16.4,3.06-2.71.51-5.42,1.03-8.13,1.52-1.18.21-2.42.4-3.58-.01s-2.07-1.32-2.7-2.35c-1.49-2.42-1.63-5.59-2.04-8.34l-1.4-9.26c-.93-6.17-1.86-12.35-2.8-18.52-.13-.86-1.43-.49-1.3.36h0Z"></path><path class="cls-1" d="m1331.91,441.18c1.13,6.12,2.27,12.25,3.4,18.37l1.69,9.09c.48,2.59.86,5.4,2.44,7.61,1.4,1.95,3.43,3.08,5.85,2.94,2.82-.17,5.67-.94,8.44-1.45,3.04-.56,6.07-1.12,9.11-1.68s6.16-.95,9.13-1.75c2.38-.64,4.38-1.98,5.23-4.38.77-2.19.48-4.59-.22-6.75-.86-2.66-2.2-5.12-2.88-7.84-.63-2.49-.9-5.06-1.12-7.62-.42-4.96-.61-10.08-2.61-14.72-.99-2.3-2.63-3.71-5.22-3.69-1.26.01-2.52.25-3.76.43-1.49.21-2.97.43-4.45.65-5.99.91-11.95,1.93-17.89,3.07-2.48.48-5.18.79-6.78,2.98-1.38,1.9-1.59,4.36-1.03,6.59.32,1.28.88,2.5,1.53,3.65.42.76,1.58.06,1.16-.69-1.22-2.2-2.14-4.79-1.32-7.29.34-1.03.98-1.97,1.9-2.56,1.13-.73,2.56-.91,3.85-1.17,5.31-1.04,10.63-1.98,15.97-2.82,2.73-.43,5.46-.84,8.2-1.21,1.15-.16,2.37-.39,3.54-.22,1.35.2,2.2,1.09,2.8,2.27,2.09,4.11,2.29,9.05,2.65,13.56s.94,9.11,2.75,13.45c.96,2.29,2.06,4.65,2.03,7.2s-1.19,4.54-3.57,5.47-5.33,1.2-7.93,1.68c-2.74.5-5.48,1.01-8.22,1.51s-5.48,1.01-8.22,1.51c-2.54.46-5.05,1.04-7.09-.99s-2.42-5.06-2.92-7.73c-.58-3.09-1.14-6.18-1.72-9.27-1.14-6.18-2.29-12.37-3.43-18.54-.16-.86-1.45-.49-1.3.36h.02Z"></path><path class="cls-1" d="m103.55,377.43c-.4,6.21-.79,12.43-1.19,18.64l-.59,9.23c-.17,2.63-.48,5.45.5,7.97.88,2.24,2.57,3.82,4.96,4.29,2.77.53,5.73.47,8.54.66,3.08.2,6.16.4,9.25.6s6.2.58,9.28.53c2.46-.04,4.74-.85,6.14-2.97,1.28-1.94,1.59-4.33,1.44-6.6-.18-2.79-.88-5.5-.88-8.31,0-2.57.36-5.12.78-7.66.8-4.91,1.87-9.93,1.07-14.91-.4-2.47-1.65-4.24-4.16-4.85-1.22-.29-2.51-.37-3.75-.51-1.49-.16-2.98-.31-4.47-.46-6.03-.58-12.06-1.05-18.1-1.39-2.52-.14-5.22-.5-7.3,1.24-1.8,1.51-2.6,3.84-2.61,6.13,0,1.32.25,2.64.59,3.91.22.84,1.52.45,1.29-.39-.65-2.43-.91-5.17.51-7.39.58-.91,1.44-1.67,2.47-2.02,1.27-.44,2.7-.26,4.02-.19,5.4.29,10.79.68,16.17,1.17,2.75.25,5.5.52,8.24.83,1.16.13,2.39.2,3.49.65,1.26.53,1.87,1.6,2.16,2.88,1.03,4.5,0,9.34-.74,13.79s-1.32,9.07-.62,13.71c.37,2.46.86,5.02.21,7.48s-2.27,4.12-4.8,4.43-5.46-.14-8.1-.31c-2.78-.18-5.56-.36-8.34-.54s-5.56-.36-8.34-.54c-2.57-.17-5.15-.23-6.63-2.69s-1.11-5.49-.94-8.21c.2-3.14.4-6.28.6-9.41.4-6.28.8-12.55,1.2-18.82.06-.87-1.29-.83-1.35.03h.02Z"></path><path class="cls-1" d="m1295.05,503.71c1,4.47,2,8.96,3,13.43s1.89,9.01,3.03,13.46c.92,3.55,2.56,7.29,6,9.06s7.75.34,11.36-.33c18.08-3.38,36.17-6.75,54.26-10.14,2.26-.42,4.52-.85,6.78-1.26,1.95-.36,4.06-.69,5.67-1.95,2.64-2.08,2.4-5.63,1.76-8.58-.92-4.31-2.07-8.59-3.12-12.87s-2.18-8.98-3.27-13.47c-.48-1.98-.76-4.26-1.89-5.99-.93-1.44-2.4-2.11-4.06-2.26-1.93-.18-3.94.11-5.86.27-2.23.19-4.46.44-6.68.7-8.62,1.08-17.16,2.69-25.69,4.32-8.99,1.72-17.97,3.43-26.95,5.15-3.76.72-7.97,1.23-11.07,3.67-2.72,2.13-3.54,5.4-3.15,8.72.19,1.63.59,3.23,1.02,4.82.23.84,1.53.48,1.3-.36-.8-2.96-1.76-6.43-.47-9.4,1.53-3.54,5.61-4.71,9.06-5.43,8.29-1.74,16.65-3.19,24.97-4.78s16.42-3.2,24.69-4.47c4.09-.63,8.19-1.16,12.31-1.53,1.91-.17,3.84-.41,5.76-.38,2.03.03,3.51.81,4.25,2.78s1.07,4.08,1.56,6.09c.49,2.01,1.02,4.2,1.53,6.3,1.02,4.2,2.04,8.39,3.06,12.59.47,1.96,1,3.91,1.42,5.88.31,1.46.56,3.02.27,4.49-.38,1.94-1.76,3.11-3.6,3.68-1.94.61-4.02.86-6.02,1.24-17.02,3.18-34.03,6.36-51.05,9.53-4.17.78-8.33,1.69-12.52,2.32-1.84.28-3.68.23-5.33-.73-1.54-.9-2.68-2.33-3.49-3.89-.97-1.87-1.47-3.95-1.94-5.99s-.92-4.1-1.38-6.15c-.93-4.18-1.86-8.37-2.8-12.54l-1.42-6.36c-.19-.85-1.49-.49-1.3.36h0Z"></path></svg>