<svg xmlns="http://www.w3.org/2000/svg" id="katman_1" viewBox="0 0 64 63.49"><path d="m34,21h-4c-1.66,0-3,1.34-3,3v4c0,1.66,1.34,3,3,3h4c1.66,0,3-1.34,3-3v-4c0-1.66-1.34-3-3-3Zm1,7c0,.55-.45,1-1,1h-4c-.55,0-1-.45-1-1v-4c0-.55.45-1,1-1h4c.55,0,1,.45,1,1v4Z"></path><path d="m60.88,59.53l-2.44-4.53h1.56c.55,0,1-.45,1-1,0-.24-.09-.47-.24-.65l-11.85-14c-.19-.22-.47-.35-.76-.35h-11.57c.14-.32.25-.66.32-1h1.58c.4,0,.76-.23.92-.59.2-.46.39-.93.57-1.41h7c.48.01.9-.31,1-.78,0-.1,2-9.59-6.25-14.93-1.44-9.51-8.69-16.68-9-17-.39-.38-1.01-.38-1.4,0-.34.33-7.59,7.5-9,17-8.32,5.34-6.32,14.83-6.32,14.93.1.47.52.79,1,.78h7c.18.48.37.95.57,1.41.16.36.52.59.92.59h1.61c.07.34.18.68.32,1h-11.57c-.29,0-.57.13-.76.35l-11.85,14c-.36.42-.31,1.05.11,1.41.18.15.41.24.65.24h1.56l-2.44,4.53c-.18.31-.18.69,0,1,.19.3.52.48.88.47h56c.35,0,.68-.19.86-.49.18-.3.18-.67.02-.98Zm-18.88-36.53c3.13,2.74,4.69,6.87,4.15,11h-5.54c.96-3.59,1.43-7.29,1.39-11Zm-10-17.55c2.19,2.44,4.03,5.16,5.49,8.09-3.41,1.95-7.59,1.95-11,0,1.46-2.93,3.32-5.66,5.51-8.09Zm-14.15,28.55c-.54-4.13,1.02-8.26,4.15-11-.05,3.71.42,7.42,1.39,11h-5.54Zm8.33,2c-1.51-3.99-2.25-8.23-2.18-12.5.04-2.79.62-5.55,1.7-8.13,3.92,2.17,8.68,2.17,12.6,0,1.08,2.58,1.66,5.34,1.7,8.13.07,4.27-.67,8.51-2.18,12.5h-11.64Zm8.64,2c-.57,1.56-2.29,2.36-3.84,1.8-.84-.3-1.49-.96-1.8-1.8h5.64Zm-18.51,3h12.69c1.77,1.36,4.23,1.36,6,0h12.69l10.15,12H6.16l10.15-12Zm-10.64,18l2.16-4h48.34l2.16,4H5.67Z"></path><path d="m28,43c-.55,0-1,.45-1,1v3c0,.55.45,1,1,1s1-.45,1-1v-3c0-.55-.45-1-1-1Z"></path><path d="m36,43c-.55,0-1,.45-1,1v3c0,.55.45,1,1,1s1-.45,1-1v-3c0-.55-.45-1-1-1Z"></path><path d="m32,45c-.55,0-1,.45-1,1v4c0,.55.45,1,1,1s1-.45,1-1v-4c0-.55-.45-1-1-1Z"></path></svg>