<svg xmlns="http://www.w3.org/2000/svg" id="katman_1" viewBox="0 0 1920 698.04"><defs><style>.cls-1{fill:#fff;}.cls-2{fill:#f9b333;}</style></defs><rect class="cls-2" x="-2.4" y="-1.64" width="1922.04" height="702.64"></rect><path class="cls-1" d="m203.74,69.11c2.54-4.6,8.36-5.06,12.95-3.98,2.69.64,5.27,1.67,7.86,2.64,2.73,1.02,5.46,2.03,8.19,3.05,11.08,4.13,22.15,8.25,33.23,12.38s22.15,8.25,33.23,12.38c4.24,1.58,10.16,2.89,12.71,7.04s.51,9.84-1.18,14.09c-2.2,5.53-4.43,11.05-6.65,16.57s-4.09,10.59-6.35,15.78c-.89,2.04-1.96,4.18-3.74,5.6-2.13,1.7-4.9,1.84-7.49,1.36s-5-1.44-7.44-2.31c-2.82-1.01-5.64-2.02-8.46-3.02-22.24-7.95-44.48-15.91-66.72-23.86-4.8-1.72-10.29-3.33-13.47-7.63-1.63-2.2-2.23-4.74-1.8-7.44s1.39-5.37,2.19-7.99c3.33-10.86,7.22-21.54,11.68-31.98,1.09-2.56,2.22-5.1,3.37-7.63.49-1.08-1.1-2.02-1.6-.94-4.98,10.91-9.38,22.08-13.14,33.47-.95,2.87-1.85,5.74-2.72,8.64-.82,2.74-1.85,5.6-1.79,8.5.11,5.05,3.86,8.97,8.07,11.25,2.32,1.26,4.82,2.14,7.3,3.02,2.98,1.06,5.95,2.13,8.93,3.19,5.95,2.13,11.9,4.26,17.85,6.39,11.82,4.23,23.65,8.46,35.47,12.69,5.88,2.1,11.73,4.3,17.64,6.3,4.62,1.56,10.09,2.55,13.96-1.19,1.67-1.61,2.74-3.73,3.64-5.84,1.14-2.66,2.17-5.37,3.25-8.05,2.31-5.75,4.62-11.51,6.93-17.26,2.02-5.03,4.75-10.26,5.27-15.73.47-4.99-1.98-8.95-6.33-11.25-2.23-1.18-4.65-1.98-7.01-2.86-2.96-1.1-5.93-2.21-8.89-3.31-5.93-2.21-11.86-4.42-17.78-6.63-11.86-4.42-23.71-8.83-35.57-13.25-5.81-2.17-11.61-4.38-17.45-6.49-4.79-1.73-10.08-3.09-14.96-.92-2.02.9-3.71,2.34-4.78,4.28-.58,1.05,1.02,1.98,1.6.94h0Z"></path><path class="cls-1" d="m177.99,135.36c-3.19,7.79-6.38,15.58-9.58,23.36l-4.79,11.68c-1.43,3.5-3.27,7.08-3.72,10.88-.37,3.13.45,6.52,3.02,8.55,1.24.98,2.72,1.55,4.19,2.1,2.01.75,4.02,1.49,6.03,2.23,7.95,2.94,15.89,5.88,23.84,8.81,1.98.73,3.95,1.53,5.96,2.19,1.59.52,3.31.79,4.91.13,2.86-1.2,3.78-4.66,4.74-7.31,2.88-7.97,5.77-15.94,8.65-23.92,1.47-4.06,2.94-8.13,4.41-12.19.71-1.95,1.42-3.91,2.12-5.86.64-1.78,1.28-3.66,1.11-5.58-.28-3.25-2.88-5.21-5.57-6.61-3.42-1.78-6.96-3.35-10.52-4.83-7.34-3.06-14.9-5.66-22.51-7.97-3.15-.96-6.74-1.76-9.82-.13-2.47,1.31-3.84,3.87-4.64,6.44-.44,1.43-.72,2.91-.96,4.39-.19,1.17,1.59,1.67,1.79.49.44-2.66.95-5.58,2.57-7.81,2.05-2.82,5.39-2.92,8.52-2.17,3.4.82,6.74,2.03,10.05,3.14s6.8,2.35,10.16,3.65,6.81,2.75,10.14,4.3c1.61.75,3.23,1.5,4.78,2.35,1.33.73,2.74,1.59,3.54,2.93.96,1.6.67,3.45.17,5.15-.55,1.86-1.29,3.68-1.95,5.5-1.3,3.6-2.6,7.19-3.9,10.79-2.6,7.19-5.2,14.38-7.81,21.57-.65,1.8-1.3,3.6-1.95,5.39-.58,1.62-1.07,3.34-1.99,4.81s-2.25,2.22-4.03,1.94-3.64-1.16-5.38-1.81c-7.17-2.65-14.34-5.3-21.5-7.95-3.55-1.31-7.12-2.61-10.66-3.94-1.54-.58-3.14-1.24-4.21-2.54s-1.51-3.02-1.53-4.68c-.05-3.91,2.02-7.74,3.47-11.27l4.88-11.91c3.25-7.94,6.51-15.88,9.76-23.82.45-1.1-1.34-1.58-1.79-.49h0Z"></path><path class="cls-1" d="m237.72,159.48c-2.98,8.02-5.96,16.04-8.94,24.06l-4.42,11.91c-1.26,3.4-2.79,6.98-2.49,10.69.27,3.29,1.87,6.05,4.83,7.6,3.44,1.79,7.35,2.89,10.98,4.24,3.98,1.48,7.95,2.96,11.93,4.44s7.93,3.22,12,4.37c3.26.92,6.57.75,9.26-1.48,2.45-2.04,3.8-5.07,4.5-8.12.86-3.74,1.02-7.59,2.13-11.28,1.01-3.39,2.5-6.6,4.05-9.77,3-6.14,6.39-12.32,7.3-19.2.45-3.41-.49-6.23-3.55-8.03-1.49-.87-3.15-1.48-4.74-2.15-1.9-.8-3.8-1.59-5.7-2.37-7.7-3.15-15.46-6.15-23.27-8.99-3.26-1.18-6.67-2.72-10.1-1.26-2.97,1.27-4.94,4.02-5.86,7.04-.53,1.74-.72,3.57-.77,5.38-.04,1.19,1.82,1.19,1.85,0,.11-3.46.85-7.16,3.59-9.53,1.13-.97,2.55-1.63,4.05-1.68,1.85-.07,3.66.73,5.37,1.34,6.99,2.52,13.93,5.16,20.82,7.93,3.52,1.42,7.03,2.86,10.52,4.35,1.47.63,3.07,1.21,4.33,2.24,1.45,1.19,1.83,2.84,1.7,4.65-.43,6.33-3.68,12.29-6.43,17.86s-5.32,11.41-6.24,17.8c-.49,3.38-.85,6.94-2.68,9.92s-4.61,4.52-8.07,3.93-7.13-2.34-10.54-3.61c-3.59-1.34-7.17-2.67-10.76-4.01s-7.17-2.67-10.76-4.01c-3.32-1.24-6.69-2.34-7.66-6.16s.71-7.67,2.01-11.18c1.5-4.05,3.01-8.1,4.51-12.15,3.01-8.1,6.02-16.2,9.02-24.29.42-1.12-1.37-1.6-1.79-.49h0Z"></path><path class="cls-1" d="m150.17,207.25c-1.98,5.98-3.96,11.97-5.93,17.95s-4.13,11.96-5.91,18.01c-1.42,4.84-2.12,10.41.69,14.92s8.9,5.86,13.63,7.61c23.71,8.76,47.42,17.53,71.14,26.29,2.96,1.1,5.93,2.19,8.89,3.29,2.56.95,5.27,2.05,8.06,1.69,4.58-.59,6.8-4.95,8.13-8.88,1.95-5.74,3.61-11.59,5.4-17.38s3.76-12.13,5.64-18.19c.83-2.67,2.1-5.56,2-8.4-.08-2.36-1.34-4.18-3.2-5.53-2.15-1.57-4.73-2.65-7.11-3.81-2.77-1.35-5.57-2.63-8.38-3.88-10.93-4.81-22.14-8.92-33.35-13.01-11.81-4.31-23.62-8.62-35.42-12.92-4.94-1.8-10.26-4.17-15.64-3.48-4.71.6-7.98,3.88-9.86,8.07-.93,2.06-1.58,4.23-2.19,6.4-.32,1.15,1.47,1.64,1.79.49,1.14-4.06,2.46-8.82,6.07-11.42,4.3-3.1,9.93-1.6,14.51-.02,11,3.79,21.89,7.97,32.82,11.96s21.63,7.8,32.28,12.13c5.27,2.14,10.48,4.41,15.6,6.87,2.37,1.14,4.82,2.23,7.06,3.61,2.37,1.46,3.57,3.43,3.05,6.28s-1.61,5.57-2.45,8.29-1.76,5.67-2.64,8.51c-1.76,5.67-3.51,11.34-5.27,17.01-.82,2.64-1.58,5.31-2.47,7.93-.66,1.94-1.47,3.95-2.85,5.49-1.81,2.02-4.27,2.42-6.84,1.8-2.72-.65-5.35-1.82-7.97-2.78-22.31-8.25-44.62-16.49-66.93-24.74-5.46-2.02-11.02-3.88-16.4-6.09-2.37-.97-4.5-2.32-5.77-4.62-1.18-2.14-1.52-4.64-1.38-7.05.17-2.89,1.05-5.69,1.94-8.43s1.81-5.48,2.71-8.22c1.85-5.59,3.7-11.18,5.54-16.77l2.81-8.5c.38-1.14-1.41-1.62-1.79-.49h0Z"></path><path class="cls-1" d="m1861.19,126.24c-26.25-4.05-52.84-4.2-79.25-1.83-1.38.12-1.39,2.29,0,2.16,26.21-2.35,52.63-2.26,78.68,1.75,1.36.21,1.95-1.87.57-2.09h0Z"></path><path class="cls-1" d="m1857.01,127.56c-20.94-13.41-50.13-12.32-73.66-8.21-22.98,4.02-45.33,13.68-62.52,29.69-16.52,15.38-28.33,36.41-30.92,58.99-2.55,22.25,4.99,45.03,20.23,61.44,4.31,4.64,9.22,8.75,14.6,12.08,2.9,1.79,5.93,3.35,9.07,4.66,1.51.63,3.05,1.26,4.62,1.72,2.56.76,4.3.13,3.71,3.37-2.64,14.47-11.55,27.15-23.99,34.88-.97.6-.49,1.9.55,2.02,12.99,1.4,26.08-.79,37.88-6.45,5.22-2.51,10.12-5.68,14.53-9.44,5.67-4.83,10.35-10.62,17.58-13.21,5.77-2.06,12-2.47,18.02-3.34,7.49-1.08,14.93-2.45,22.31-4.11,14-3.15,27.69-7.39,41.11-12.47,20.79-7.87,42.6-17.48,57.02-35.08,14.64-17.87,16.37-41.97,8.01-63.06-19.15-48.28-74.56-60.4-121.21-59.85-25.14.3-51.02,3.18-73.93,14.2-22.07,10.62-39.63,28.5-46.94,52.15-4.4,14.24-6.18,30.18-6.3,45.05-.1,12.96,4.97,23.54,14.88,31.84,5.4,4.52,11.52,8.08,17.63,11.52,6.39,3.6,13.94,6.8,19.36,11.84,7.53,6.98-1.6,16.22-6.55,21.86-4.89,5.57-10.1,10.72-15.9,15.35-.77.61-.1,1.83.76,1.85,14.53.2,29.12-2.35,42.54-8.02,13-5.49,23.9-14.8,36.7-20.68,14.05-6.45,29.86-8.2,44.78-11.71,14.4-3.39,28.73-7.38,42.35-13.24,22.98-9.88,44.97-25.76,56.31-48.67,10.73-21.68,10.74-50.16-5.43-69.29-16.63-19.68-46.16-24.38-70.13-28.51-1.36-.23-1.95,1.85-.57,2.09,21.22,3.66,45.94,7.59,62.99,21.82,20.46,17.08,22.82,47.53,12.27,70.72-10.47,23-31.95,39.04-54.5,49.09-12.94,5.77-26.63,9.73-40.38,13.07-13.56,3.29-27.62,5.16-40.86,9.64-13.58,4.6-24.71,13.47-37.2,20.21-14.9,8.05-32.01,11.55-48.87,11.31.25.62.51,1.23.76,1.85,8.89-7.09,18.35-16.02,23.99-26.04,5.1-9.07-.47-14.16-8.16-18.87-10.88-6.66-23.03-11.82-32.48-20.56-10.58-9.79-12.8-21.54-11.8-35.46,1.9-26.32,6.61-51.93,26.44-70.95,18.69-17.93,44.01-26.35,69.27-29.48,46.87-5.81,108.15-2.45,138.56,39.32,13.85,19.02,19.76,45.38,9.07,67.26-10.33,21.15-33.04,33.18-53.88,41.74-13.04,5.36-26.39,9.99-40.02,13.58-14.62,3.85-29.42,5.45-44.2,8.29-6.06,1.16-11.39,3.38-16.16,7.35-5.42,4.52-10.06,9.63-16.1,13.42-13,8.18-28.35,11.55-43.59,9.91.18.67.36,1.34.55,2.02,9.03-5.61,16.28-13.6,20.81-23.24,2.04-4.33,3.94-9.33,4.45-14.12.38-3.52-1.13-3.63-4.21-4.52-24.16-6.99-41.76-29.58-47.04-53.58-5.21-23.73,2.23-48.46,16.38-67.73,14.58-19.86,36.04-33.25,59.53-40.02,14.11-4.07,28.89-5.87,43.57-5.7,14.96.17,30.35,2.06,43.19,10.29,1.18.75,2.26-1.12,1.09-1.87h0Z"></path><path class="cls-1" d="m152.91,582.24c-16.37,14.77-41.17,20.24-60.99,9.11-20.43-11.47-29.67-35.6-25.05-58.12,4.58-22.32,22.28-40.66,43.66-47.84,21.47-7.21,46.43-2.3,60.19,16.67,7.98,11.01,9.07,23.92,7.05,37.03-1.92,12.47-5.36,25.37-14.04,34.92-.86.94.66,2.22,1.52,1.27,7.96-8.76,11.62-20.28,13.75-31.72,2.26-12.14,2.89-24.79-2.77-36.13-10.69-21.4-35.39-30.59-58.12-26.01-22.83,4.6-43.15,21.43-50.87,43.57-7.88,22.59-1.81,48.8,17.44,63.71,20.85,16.15,50.53,12.31,69.06-5.56.49-.48-.31-1.36-.82-.89h0Z"></path><path class="cls-1" d="m163.47,574.86c5.19,9.06,10.4,18.1,15.7,27.1.43-.4.87-.8,1.3-1.2-8.11-7.48-18.25-12.31-27.08-18.83-.87-.64-1.94.6-1.08,1.3,8.56,6.96,18.88,11.36,27.02,18.91.78.72,1.79-.37,1.3-1.2-5.34-8.95-10.76-17.86-16.2-26.75-.4-.65-1.33.03-.96.68h0Z"></path><path class="cls-1" d="m56.62,525.09c-6.46,17.92-3.18,39.24,6.24,55.47.56.97,1.99-.04,1.43-1.01-4.73-8.19-7.76-17.26-8.85-26.66-1.08-9.34-.02-18.4,2.11-27.51.13-.54-.74-.83-.93-.3h0Z"></path><path class="cls-1" d="m214.84,423.54c0,1.69.41,6.08-1.93,6.6-2.5.55-6.31-4.44-7.89-5.96-3.22-3.07-6.33-6.28-9.19-9.69l1.02-1.02c2.38,2.33,4.71,4.71,7.14,7.01,1.16,1.1,2.33,2.19,3.53,3.26.46.42,3.01,3.11,3.61,3.17,2.63.26,1.37-6.76,1.26-8.43-.22-3.29-.44-6.57-.67-9.87-.06-.84.72-1.22,1.37-1.08.06-.04.13-.08.22-.11,2.98-1.18,6.16-1.92,9.33-2.53,1.1-.21,7.14-.31,7.83-1.13.97-1.16-6.23-5.32-7.24-6-2.86-1.9-5.76-3.75-8.62-5.65l.81-1.27c4.39,2.37,8.61,5.01,12.76,7.77,1.54,1.02,5.06,2.5,5.22,4.68.17,2.5-2.98,2.7-4.78,2.92-5.04.61-9.76,1.88-14.62,3.14,0,0-.01,0-.02,0,.07.98.15,1.98.23,2.96.13.03.26.07.39.11l-.29,1.25c.27,3.29.51,6.58.52,9.86Z"></path><path class="cls-1" d="m196.86,413.47l-1.02,1.02s-.1.08-.17.12c-3.66,1.93-17.05,7.79-19.91,1.7-1.44-3.07,1.56-6.85,3.03-9.09,2.26-3.45,4.83-6.78,8.03-9.4l1.25,1.03c-1.66,2.01-3.42,3.92-5.01,5.99-1.64,2.12-4.15,4.82-4.82,7.47-2.03,8.09,13.83,1.81,16.22.53.2-.1.41-.14.6-.12.24-.26.65-.37.96-.07.28.27.56.55.83.82Z"></path><path class="cls-1" d="m215.42,390.85l-.81,1.27-.3-.19s-.08-.07-.12-.12c-.45-.05-.87-.37-.9-.96-.13-2.86-.33-5.7-.64-8.54-.21-1.99-.1-6.68-1.79-8.01-.52-1.05-1.17-1.1-1.93-.16-.7.6-1.34,1.26-1.91,1.99-.95,1.03-1.86,2.12-2.79,3.17-1.87,2.11-3.72,4.23-5.75,6.18-.49.47-1.13.19-1.34-.29-3.23-.4-6.43-1.46-9.6-2.24-1.42-.35-2.84-.69-4.27-1.02-.41-.09-3.98-1.15-4.28-.93-1.52,1.08,8.66,14.45,9.84,16.11.48.68.03,1.36-.58,1.54-.06.07-.11.14-.17.21l-1.25-1.03c-2.93-4.11-5.77-8.27-8.49-12.51-.98-1.52-3.01-4.07-1.48-5.79,1.66-1.87,6.21.21,8.19.67,4.16.99,8.62,1.87,12.51,3.78,2.7-3.7,5.78-7.42,9-10.65,1.19-1.19,3.01-2.62,4.89-1.94,2.48.88,2.5,4.14,2.8,6.23.31,2.15.56,4.3.75,6.46l.1,1.29c.14,1.79.26,3.58.34,5.38,0,.04-.01.08,0,.11Z"></path><path class="cls-1" d="m282.54,450.16c0,1.69.41,6.08-1.93,6.6-2.5.55-6.31-4.44-7.89-5.96-3.22-3.07-6.33-6.28-9.19-9.69l1.02-1.02c2.38,2.33,4.71,4.71,7.14,7.01,1.16,1.1,2.33,2.19,3.53,3.26.46.42,3.01,3.11,3.61,3.17,2.63.26,1.37-6.76,1.26-8.43-.22-3.29-.44-6.57-.67-9.87-.06-.84.72-1.22,1.37-1.08.06-.04.13-.08.22-.11,2.98-1.18,6.16-1.92,9.33-2.53,1.1-.21,7.14-.31,7.83-1.13.97-1.16-6.23-5.32-7.24-6-2.86-1.9-5.76-3.75-8.62-5.65l.81-1.27c4.39,2.37,8.61,5.01,12.76,7.77,1.54,1.02,5.06,2.5,5.22,4.68.17,2.5-2.98,2.7-4.78,2.92-5.04.61-9.76,1.88-14.62,3.14,0,0-.01,0-.02,0,.07.98.15,1.98.23,2.96.13.03.26.07.39.11l-.29,1.25c.27,3.29.51,6.58.52,9.86Z"></path><path class="cls-1" d="m264.56,440.09l-1.02,1.02s-.1.08-.17.12c-3.66,1.93-17.05,7.79-19.91,1.7-1.44-3.07,1.56-6.85,3.03-9.09,2.26-3.45,4.83-6.78,8.03-9.4l1.25,1.03c-1.66,2.01-3.42,3.92-5.01,5.99-1.64,2.12-4.15,4.82-4.82,7.47-2.03,8.09,13.83,1.81,16.22.53.2-.1.41-.14.6-.12.24-.26.65-.37.96-.07.28.27.56.55.83.82Z"></path><path class="cls-1" d="m283.12,417.47l-.81,1.27-.3-.19s-.08-.07-.12-.12c-.45-.05-.87-.37-.9-.96-.13-2.86-.33-5.7-.64-8.54-.21-1.99-.1-6.68-1.79-8.01-.52-1.05-1.17-1.1-1.93-.16-.7.6-1.34,1.26-1.91,1.99-.95,1.03-1.86,2.12-2.79,3.17-1.87,2.11-3.72,4.23-5.75,6.18-.49.47-1.13.19-1.34-.29-3.23-.4-6.43-1.46-9.6-2.24-1.42-.35-2.84-.69-4.27-1.02-.41-.09-3.98-1.15-4.28-.93-1.52,1.08,8.66,14.45,9.84,16.11.48.68.03,1.36-.58,1.54-.06.07-.11.14-.17.21l-1.25-1.03c-2.93-4.11-5.77-8.27-8.49-12.51-.98-1.52-3.01-4.07-1.48-5.79,1.66-1.87,6.21.21,8.19.67,4.16.99,8.62,1.87,12.51,3.78,2.7-3.7,5.78-7.42,9-10.65,1.19-1.19,3.01-2.62,4.89-1.94,2.48.88,2.5,4.14,2.8,6.23.31,2.15.56,4.3.75,6.46l.1,1.29c.14,1.79.26,3.58.34,5.38,0,.04-.01.08,0,.11Z"></path><path class="cls-1" d="m352.87,478.27c0,1.69.41,6.08-1.93,6.6-2.5.55-6.31-4.44-7.89-5.96-3.22-3.07-6.33-6.28-9.19-9.69l1.02-1.02c2.38,2.33,4.71,4.71,7.14,7.01,1.16,1.1,2.33,2.19,3.53,3.26.46.42,3.01,3.11,3.61,3.17,2.63.26,1.37-6.76,1.26-8.43-.22-3.29-.44-6.57-.67-9.87-.06-.84.72-1.22,1.37-1.08.06-.04.13-.08.22-.11,2.98-1.18,6.16-1.92,9.33-2.53,1.1-.21,7.14-.31,7.83-1.13.97-1.16-6.23-5.32-7.24-6-2.86-1.9-5.76-3.75-8.62-5.65l.81-1.27c4.39,2.37,8.61,5.01,12.76,7.77,1.54,1.02,5.06,2.5,5.22,4.68.17,2.5-2.98,2.7-4.78,2.92-5.04.61-9.76,1.88-14.62,3.14,0,0-.01,0-.02,0,.07.98.15,1.98.23,2.96.13.03.26.07.39.11l-.29,1.25c.27,3.29.51,6.58.52,9.86Z"></path><path class="cls-1" d="m334.88,468.21l-1.02,1.02s-.1.08-.17.12c-3.66,1.93-17.05,7.79-19.91,1.7-1.44-3.07,1.56-6.85,3.03-9.09,2.26-3.45,4.83-6.78,8.03-9.4l1.25,1.03c-1.66,2.01-3.42,3.92-5.01,5.99-1.64,2.12-4.15,4.82-4.82,7.47-2.03,8.09,13.83,1.81,16.22.53.2-.1.41-.14.6-.12.24-.26.65-.37.96-.07.28.27.56.55.83.82Z"></path><path class="cls-1" d="m353.44,445.58l-.81,1.27-.3-.19s-.08-.07-.12-.12c-.45-.05-.87-.37-.9-.96-.13-2.86-.33-5.7-.64-8.54-.21-1.99-.1-6.68-1.79-8.01-.52-1.05-1.17-1.1-1.93-.16-.7.6-1.34,1.26-1.91,1.99-.95,1.03-1.86,2.12-2.79,3.17-1.87,2.11-3.72,4.23-5.75,6.18-.49.47-1.13.19-1.34-.29-3.23-.4-6.43-1.46-9.6-2.24-1.42-.35-2.84-.69-4.27-1.02-.41-.09-3.98-1.15-4.28-.93-1.52,1.08,8.66,14.45,9.84,16.11.48.68.03,1.36-.58,1.54-.06.07-.11.14-.17.21l-1.25-1.03c-2.93-4.11-5.77-8.27-8.49-12.51-.98-1.52-3.01-4.07-1.48-5.79,1.66-1.87,6.21.21,8.19.67,4.16.99,8.62,1.87,12.51,3.78,2.7-3.7,5.78-7.42,9-10.65,1.19-1.19,3.01-2.62,4.89-1.94,2.48.88,2.5,4.14,2.8,6.23.31,2.15.56,4.3.75,6.46l.1,1.29c.14,1.79.26,3.58.34,5.38,0,.04-.01.08,0,.11Z"></path><path class="cls-1" d="m422.68,505.3c0,1.69.41,6.08-1.93,6.6-2.5.55-6.31-4.44-7.89-5.96-3.22-3.07-6.33-6.28-9.19-9.69l1.02-1.02c2.38,2.33,4.71,4.71,7.14,7.01,1.16,1.1,2.33,2.19,3.53,3.26.46.42,3.01,3.11,3.61,3.17,2.63.26,1.37-6.76,1.26-8.43-.22-3.29-.44-6.57-.67-9.87-.06-.84.72-1.22,1.37-1.08.06-.04.13-.08.22-.11,2.98-1.18,6.16-1.92,9.33-2.53,1.1-.21,7.14-.31,7.83-1.13.97-1.16-6.23-5.32-7.24-6-2.86-1.9-5.76-3.75-8.62-5.65l.81-1.27c4.39,2.37,8.61,5.01,12.76,7.77,1.54,1.02,5.06,2.5,5.22,4.68.17,2.5-2.98,2.7-4.78,2.92-5.04.61-9.76,1.88-14.62,3.14,0,0-.01,0-.02,0,.07.98.15,1.98.23,2.96.13.03.26.07.39.11l-.29,1.25c.27,3.29.51,6.58.52,9.86Z"></path><path class="cls-1" d="m404.7,495.23l-1.02,1.02s-.1.08-.17.12c-3.66,1.93-17.05,7.79-19.91,1.7-1.44-3.07,1.56-6.85,3.03-9.09,2.26-3.45,4.83-6.78,8.03-9.4l1.25,1.03c-1.66,2.01-3.42,3.92-5.01,5.99-1.64,2.12-4.15,4.82-4.82,7.47-2.03,8.09,13.83,1.81,16.22.53.2-.1.41-.14.6-.12.24-.26.65-.37.96-.07.28.27.56.55.83.82Z"></path><path class="cls-1" d="m423.26,472.61l-.81,1.27-.3-.19s-.08-.07-.12-.12c-.45-.05-.87-.37-.9-.96-.13-2.86-.33-5.7-.64-8.54-.21-1.99-.1-6.68-1.79-8.01-.52-1.05-1.17-1.1-1.93-.16-.7.6-1.34,1.26-1.91,1.99-.95,1.03-1.86,2.12-2.79,3.17-1.87,2.11-3.72,4.23-5.75,6.18-.49.47-1.13.19-1.34-.29-3.23-.4-6.43-1.46-9.6-2.24-1.42-.35-2.84-.69-4.27-1.02-.41-.09-3.98-1.15-4.28-.93-1.52,1.08,8.66,14.45,9.84,16.11.48.68.03,1.36-.58,1.54-.06.07-.11.14-.17.21l-1.25-1.03c-2.93-4.11-5.77-8.27-8.49-12.51-.98-1.52-3.01-4.07-1.48-5.79,1.66-1.87,6.21.21,8.19.67,4.16.99,8.62,1.87,12.51,3.78,2.7-3.7,5.78-7.42,9-10.65,1.19-1.19,3.01-2.62,4.89-1.94,2.48.88,2.5,4.14,2.8,6.23.31,2.15.56,4.3.75,6.46l.1,1.29c.14,1.79.26,3.58.34,5.38,0,.04-.01.08,0,.11Z"></path><path class="cls-1" d="m492.26,531.34c0,1.69.41,6.08-1.93,6.6-2.5.55-6.31-4.44-7.89-5.96-3.22-3.07-6.33-6.28-9.19-9.69l1.02-1.02c2.38,2.33,4.71,4.71,7.14,7.01,1.16,1.1,2.33,2.19,3.53,3.26.46.42,3.01,3.11,3.61,3.17,2.63.26,1.37-6.76,1.26-8.43-.22-3.29-.44-6.57-.67-9.87-.06-.84.72-1.22,1.37-1.08.06-.04.13-.08.22-.11,2.98-1.18,6.16-1.92,9.33-2.53,1.1-.21,7.14-.31,7.83-1.13.97-1.16-6.23-5.32-7.24-6-2.86-1.9-5.76-3.75-8.62-5.65l.81-1.27c4.39,2.37,8.61,5.01,12.76,7.77,1.54,1.02,5.06,2.5,5.22,4.68.17,2.5-2.98,2.7-4.78,2.92-5.04.61-9.76,1.88-14.62,3.14,0,0-.01,0-.02,0,.07.98.15,1.98.23,2.96.13.03.26.07.39.11l-.29,1.25c.27,3.29.51,6.58.52,9.86Z"></path><path class="cls-1" d="m474.27,521.27l-1.02,1.02s-.1.08-.17.12c-3.66,1.93-17.05,7.79-19.91,1.7-1.44-3.07,1.56-6.85,3.03-9.09,2.26-3.45,4.83-6.78,8.03-9.4l1.25,1.03c-1.66,2.01-3.42,3.92-5.01,5.99-1.64,2.12-4.15,4.82-4.82,7.47-2.03,8.09,13.83,1.81,16.22.53.2-.1.41-.14.6-.12.24-.26.65-.37.96-.07.28.27.56.55.83.82Z"></path><path class="cls-1" d="m492.83,498.65l-.81,1.27-.3-.19s-.08-.07-.12-.12c-.45-.05-.87-.37-.9-.96-.13-2.86-.33-5.7-.64-8.54-.21-1.99-.1-6.68-1.79-8.01-.52-1.05-1.17-1.1-1.93-.16-.7.6-1.34,1.26-1.91,1.99-.95,1.03-1.86,2.12-2.79,3.17-1.87,2.11-3.72,4.23-5.75,6.18-.49.47-1.13.19-1.34-.29-3.23-.4-6.43-1.46-9.6-2.24-1.42-.35-2.84-.69-4.27-1.02-.41-.09-3.98-1.15-4.28-.93-1.52,1.08,8.66,14.45,9.84,16.11.48.68.03,1.36-.58,1.54-.06.07-.11.14-.17.21l-1.25-1.03c-2.93-4.11-5.77-8.27-8.49-12.51-.98-1.52-3.01-4.07-1.48-5.79,1.66-1.87,6.21.21,8.19.67,4.16.99,8.62,1.87,12.51,3.78,2.7-3.7,5.78-7.42,9-10.65,1.19-1.19,3.01-2.62,4.89-1.94,2.48.88,2.5,4.14,2.8,6.23.31,2.15.56,4.3.75,6.46l.1,1.29c.14,1.79.26,3.58.34,5.38,0,.04-.01.08,0,.11Z"></path><path class="cls-1" d="m1795.2,567.8c-.01,1.38-1.26,2.45-2.63,1.85-3.11-1.39-6.19-2.79-9.29-4.17l-3.98-1.79c-1.93-1.93-3.06-1.78-3.36.44-1.92,2.09-1.65,7.84-2.11,10.5-.44,2.59-.97,5.11-1.65,7.62l.2.36c1.16,2.11-1.83,4.28-3.15,2.16-20.29-32.72-48.93-54.72-85.42-66.49l.59-2.51c34.92,7.8,67.51,32.02,85.73,62.88.29-3.51.79-7.01,1.27-10.5.28-2.15.1-7.27,2.32-8.91,1.41-1.04,2.96-.33,4.41.03,4.4,1.05,9.02,3.65,13.33,5.78-.09-7.96-.52-15.89-1.16-23.83-.06-.82.34-1.38.89-1.68-.26-.78.66-1.76,1.56-1.39.86.37,1.69.75,2.52,1.18l-1.21,2.39c.94,8.67,1.22,17.39,1.13,26.1Z"></path><path class="cls-1" d="m1816.46,539.86c.44,1.44-1.36,3.07-2.88,1.91-2.12-1.63-4.3-2.98-6.62-4.17,1.1,3.81,1.49,7.72,1.21,11.8-.09,1.31-1.98,1.93-2.88,1.04-3.43-3.35-7.29-6.08-11.23-8.73l1.21-2.39c3.34,1.7,6.44,3.83,9.4,6.12-.2-3.67-1.09-7.21-2.62-10.64-.67-1.55,1.16-2.78,2.5-2.28,3.62,1.36,7,3.19,10.07,5.54-26.15-47.75-75.4-73.9-128.77-76.29l-.18-2.56c53.82-3.18,107.42,31.2,132.53,77.71.79,1.48-.53,2.97-1.77,2.94Z"></path><path class="cls-1" d="m1770.95,552.43c1.03,1.32-1.04,2.62-2.1,1.45-16.33-18.2-34.59-31.86-57.03-41.72-.82-.37-.23-1.52.58-1.24,22.57,7.99,43.7,22.65,58.55,41.52Z"></path><path class="cls-1" d="m1771.33,531.22c.83.79-.23,2.06-1.14,1.34-12.05-9.65-23.87-18.71-37.45-26.18-.58-.32-.16-1.25.44-.95,13.62,6.84,27.14,15.16,38.15,25.78Z"></path><path class="cls-1" d="m1779.65,515.14c1.03,1-.44,2.72-1.44,1.7-17.72-17.75-39.29-29.93-63.29-36.98-.7-.21-.53-1.32.21-1.13,24.53,6,46.49,18.83,64.53,36.4Z"></path><path class="cls-1" d="m1684.67,537.89c-.02,3.37.71,12.09-3.94,13.28-4.95,1.27-12.41-8.44-15.51-11.36-6.32-5.91-12.41-12.1-18.01-18.72l2.03-2.1c4.66,4.5,9.25,9.08,14.01,13.5,2.28,2.12,4.58,4.22,6.92,6.26.91.81,5.89,6.01,7.09,6.09,5.2.35,2.84-13.57,2.65-16.89-.37-6.54-.75-13.07-1.14-19.62-.09-1.68,1.44-2.49,2.72-2.24.12-.09.26-.16.43-.23,5.92-2.54,12.24-4.23,18.53-5.64,2.18-.48,14.14-1.08,15.52-2.77,1.95-2.38-12.24-10.21-14.23-11.49-5.64-3.6-11.33-7.1-16.97-10.69l1.63-2.58c8.64,4.43,16.96,9.42,25.13,14.66,3.03,1.94,9.97,4.65,10.24,8.99.3,4.97-5.96,5.58-9.52,6.13-9.99,1.55-19.36,4.38-29.02,7.22-.01.01-.02,0-.03.01.12,1.95.26,3.93.4,5.88.26.05.52.12.78.19l-.59,2.51c.46,6.53.89,13.08.85,19.61Z"></path><path class="cls-1" d="m1649.24,518.99l-2.03,2.1c-.1.09-.21.17-.34.25-7.28,4.09-33.92,16.64-39.46,4.69-2.79-6.03,3.21-13.75,6.17-18.32,4.53-7.02,9.7-13.82,16.08-19.25l2.46,1.98c-3.33,4.11-6.85,8.04-10.03,12.26-3.28,4.33-8.32,9.87-9.69,15.2-4.18,16.25,27.36,2.7,32.11,0,.4-.22.81-.3,1.19-.27.48-.54,1.3-.78,1.9-.2.54.52,1.09,1.05,1.63,1.57Z"></path><path class="cls-1" d="m1686.42,472.69l-1.63,2.58-.58-.37c-.1-.06-.16-.14-.24-.22-.9-.08-1.71-.68-1.76-1.85-.2-5.69-.54-11.33-1.1-16.99-.39-3.95-.08-13.31-3.4-15.84-1.01-2.05-2.3-2.12-3.83-.19-1.4,1.25-2.67,2.6-3.82,4.08-1.9,2.12-3.72,4.34-5.58,6.49-3.74,4.32-7.46,8.68-11.51,12.69-.98.96-2.24.45-2.64-.48-6.39-.59-12.71-2.5-18.97-3.84-2.81-.61-5.62-1.2-8.43-1.76-.81-.15-7.85-2.04-8.46-1.57-3.04,2.25,16.87,28.25,19.17,31.48.94,1.33.03,2.71-1.17,3.1-.12.14-.23.3-.35.43l-2.46-1.98c-5.73-8-11.27-16.11-16.58-24.38-1.91-2.96-5.88-7.92-2.81-11.44,3.33-3.83,12.3,0,16.2.81,8.23,1.69,17.03,3.16,24.7,6.72,5.42-7.54,11.58-15.17,18.02-21.82,2.37-2.45,6.02-5.42,9.71-4.19,4.89,1.6,4.87,8.09,5.43,12.23.57,4.26,1.02,8.54,1.37,12.82l.18,2.56c.25,3.56.45,7.12.57,10.7,0,.08-.02.15-.02.22Z"></path></svg>