<svg xmlns="http://www.w3.org/2000/svg" id="katman_1" viewBox="0 0 32 32"><defs><style>.cls-1{fill:none;}</style></defs><rect class="cls-1" width="32" height="32"></rect><path d="m13.5,3.24c1.65-.32,3.35-.32,5,0,.39.08.7.38.78.76l.58,2.57c.02.08.03.15.03.23,0,.55-.45,1-1,1-.47,0-.88-.33-.98-.79l-.41-1.81c-1-.14-2.01-.14-3.01,0l-.41,1.81c-.08.35-.34.63-.68.73-1.22.38-2.33,1.02-3.27,1.89-.26.24-.64.32-.98.22l-1.77-.55c-.62.8-1.12,1.67-1.5,2.61l1.36,1.25c.26.24.38.6.3.95-.28,1.24-.28,2.53,0,3.77.08.35-.04.71-.3.95l-1.36,1.25c.38.94.88,1.81,1.5,2.61l1.77-.55c.34-.11.71-.02.98.22.94.86,2.05,1.51,3.27,1.89.34.11.6.39.68.73l.41,1.81c1,.14,2.01.14,3.01,0l.41-1.81c.08-.35.34-.63.68-.73,1.22-.38,2.33-1.02,3.27-1.89.26-.24.64-.33.98-.22l1.77.55c.62-.8,1.12-1.67,1.5-2.61l-1.36-1.25c-.26-.24-.38-.6-.3-.95.28-1.24.28-2.53,0-3.77-.08-.35.04-.71.3-.95l1.36-1.25c-.38-.94-.88-1.81-1.5-2.61l-1.77.55c-.1.03-.21.05-.32.05-.55,0-1-.45-1-1,0-.44.3-.84.72-.96l2.51-.79c.38-.12.79,0,1.05.3,1.11,1.27,1.96,2.74,2.5,4.34.13.38.02.79-.27,1.06l-1.57,1.44c.18,1.13.18,2.28,0,3.41l1.57,1.44c.29.27.4.69.27,1.06-.55,1.59-1.4,3.07-2.5,4.34-.26.3-.67.42-1.05.3l-2.03-.64c-.89.73-1.88,1.3-2.96,1.71l-.47,2.08c-.09.39-.39.69-.78.76-1.65.32-3.35.32-5,0-.39-.08-.7-.38-.78-.76l-.47-2.08c-1.07-.41-2.07-.98-2.96-1.71l-2.03.64c-.38.12-.79,0-1.05-.3-1.11-1.27-1.96-2.74-2.5-4.34-.13-.38-.02-.79.27-1.06l1.57-1.44c-.18-1.13-.18-2.28,0-3.41l-1.57-1.44c-.29-.27-.4-.69-.27-1.06.55-1.59,1.39-3.07,2.5-4.34.26-.3.68-.41,1.05-.3l2.04.64c.89-.73,1.88-1.3,2.96-1.71l.47-2.08c.09-.39.39-.69.78-.76Zm3.5,7.76v-1c0-.55.44-1.01.98-1.01h.02c.55,0,1,.45,1,1h0v1.01h1c1.65,0,3,1.35,3,3v4c0,1.65-1.35,3-3,3h-1v1h0c0,.56-.45,1.01-1,1.01s-1-.45-1-1h0v-1.01h-2v1h0c0,.56-.45,1.01-1,1.01s-1-.45-1-1h0v-1.01h-1c-1.65,0-3-1.35-3-3v-4c0-1.65,1.35-3,3-3h1v-1c0-.55.44-1.01.98-1.01h.02c.55,0,1,.45,1,1h0v1.01h2Zm3,2h-8c-.56,0-1,.44-1,1v4c0,.57.44,1,1,1h8c.57,0,1-.43,1-1v-4c0-.56-.43-1-1-1Z"></path></svg>