<svg xmlns="http://www.w3.org/2000/svg" id="katman_2" data-name="katman 2" viewBox="0 0 89.32 85.71"><defs><style>      .cls-1 {        stroke-width: 0px;      }    </style></defs><g id="katman_1" data-name="katman 1"><path class="cls-1" d="m88.8,4.56c-.3-1.39-1.22-3.09-2.37-3.73-1.4-.77-3.39-.98-5.02-.72-4.11.64-8.2,1.41-12.28,2.19-4.16.8-8.08,2.51-11.49,5.03l-7.73,5.72c-3.23,2.58-6.34,5.32-9.45,8.04-1,.88-1.88,1.9-2.78,2.89-1.36,1.51-2.66,3.06-4.04,4.55-.23.25-.69.37-1.02.27-5.75-1.81-11.57-3.17-17.65-2.49-1.31.15-2.89.54-3.77,1.41-3.23,3.15-6.24,6.52-9.27,9.86-1.16,1.27-2.26,2.57-1.49,4.6.79,2.12,2.43,2.04,4.2,2.16,5.59.38,11.17.87,17.21,1.36-1.07,2.34-1.93,4.16-2.74,6-.83,1.9-.96,3.66.95,5.11,3.29,2.5,6.4,5.25,9.83,7.52,2.74,1.81,5.8,2.12,8.67-.15.69-.54,1.55-.87,2.36-1.31.35.35.97.67,1,1.05.44,4.62.79,9.25,1.2,13.87.1,1.08-.03,2.48.58,3.13.65.7,2.28,1.22,3.09.89,4.15-1.71,8.34-3.45,12.21-5.71,3.27-1.91,4.8-4.96,4.01-9.1-1.02-5.3-3.24-9.96-6.47-14.37,2.07-1.85,3.98-3.5,5.83-5.21,3.67-3.4,7.15-7.03,11.01-10.19,5.05-4.14,8.95-9.03,11.47-15.04.23-.56.5-1.11.85-1.6,3.45-4.88,4.31-10.3,3.1-16.03ZM21.45,41.9c-4.19-.75-8.43-1.23-12.65-1.84-.62-.09-1.22-.34-2.14-.6,2.47-2.8,4.57-5.57,7.1-7.88.98-.9,2.93-1.14,4.39-1.03,4.15.3,8.28.94,13.14,1.53-2.39,3.29-4.26,5.78-6.05,8.33-.97,1.38-2.06,1.81-3.79,1.5h0Zm6.85,16.03c-1.2-1.03-2.31-2.18-3.37-3.37-1.56-1.75-1.08-4.14,1.13-6.79,4.24,3.64,8.48,7.28,12.73,10.93-4.34,2.83-6.45,2.7-10.49-.77Zm29.34,10.68c.36,1.45-.08,2.57-1.76,3.34-2.55,1.15-4.89,2.76-7.91,4.51,1.39-5.3-.47-9.25-1.65-13.27-.55-1.87-.59-3.17,1.52-4.14,1.91-.88,3.59-2.27,6.16-3.95,1.29,4.75,2.54,9.11,3.63,13.52h0Zm27-59.83c-.42,5.02-2.33,9.49-5.51,13.46-1.98,2.47-3.51,5.29-5.48,7.76-1.48,1.85-3.33,3.42-5.04,5.09-.47.46-1.04.82-1.52,1.28-5.2,4.94-10.29,10-15.62,14.8-1.85,1.67-4.15,3.07-6.49,3.88-1.19.42-2.98-.61-4.4-1.21-.88-.37-1.61-1.13-2.33-1.8-2.95-2.75-5.9-5.51-8.78-8.34-.4-.39-.45-1.07-.12-1.52,3.55-4.77,7.14-9.51,10.67-14.16,2.2-2.9,4.78-5.49,7.66-7.71,3.92-3.01,7.7-5.91,11.47-8.83,1.05-.81,1.9-1.9,3-2.62,4.42-2.92,9.58-3.48,14.63-4.31.96-.16,1.94-.24,2.91-.35,3.8-.44,5.26.76,4.94,4.6v-.02Z"></path><path class="cls-1" d="m26.71,67.53c-1.71-.56-2.58.63-2.42,2.43.4,4.31-1.78,7.55-4.44,10.56-.33.38-1.07.69-1.51.59-.36-.09-.86-.92-.76-1.3.32-1.31.63-2.73,1.39-3.79.87-1.21,1.98-2.39.72-3.64-1.08-1.07-2.42-1.44-4.19-.28-2.42,1.59-5.29,2.48-8.78.89,1.71-1.34,2.99-2.51,4.42-3.41,1.14-.72,2.51-1.17,1.71-2.88-.79-1.7-2.12-1.81-3.88-1.42-1.45.32-3.06-.04-4.59-.1-.06-.4-.12-.81-.18-1.21,1.74-.75,3.42-1.79,5.24-2.16,1.81-.37,3.78.1,5.64-.16.36-.05.71-.26,1.04-.52.84-.67.91-1.97.09-2.66-.15-.12-.3-.21-.47-.25-4.15-.88-8.21-.45-11.9,1.74-1.18.7-2.21,1.82-3.03,2.95-1.71,2.37-.72,4.33,3.14,6.53-3.16,6.85,2.48,9.27,8.91,8.41.02.95.06,1.7.06,2.45.02,2.32,1.28,4.17,3.17,4.94,2.16.88,4.63.52,6.6-1.01,4.53-3.54,6.57-8.42,6.77-14,.03-.9-1.62-2.33-2.76-2.7h.01Z"></path><path class="cls-1" d="m67.72,11.04c-3.57-.54-5.99,1.25-8.25,3.73-2.88,3.16-2.97,7.72.1,10.79,2.22,2.57,5.12,3.24,8.46,2.7,3.55-.57,7.77-4.95,8.21-8.13.65-4.74-4.83-8.53-8.52-9.09Zm2.61,10.85c-2.41,2.39-5.52,2.75-7.5.97-2.48-2.22-2.19-5.01.68-6.72,2.41-1.43,6.56-.36,7.9,2.09.88,1.62,0,2.77-1.08,3.66Z"></path></g></svg>